<?xml version="1.0" encoding="utf-8"?>
<!-- Generator: Adobe Illustrator 16.0.0, SVG Export Plug-In . SVG Version: 6.00 Build 0)  -->
<!DOCTYPE svg PUBLIC "-//W3C//DTD SVG 1.1//EN" "http://www.w3.org/Graphics/SVG/1.1/DTD/svg11.dtd">
<svg version="1.1" id="Capa_1" xmlns="http://www.w3.org/2000/svg" xmlns:xlink="http://www.w3.org/1999/xlink" x="0px" y="0px"
	 width="306.667px" height="150.5px" viewBox="0 0 306.667 150.5" enable-background="new 0 0 306.667 150.5" xml:space="preserve">
<g display="none">
	<g display="inline">
		<path fill-rule="evenodd" clip-rule="evenodd" fill="#FFFFFF" d="M159.624,17.773c0-51.333,0-102.667,0-154
			c66.333,0,132.666,0,199,0c0,51.333,0,102.667,0,154C292.29,17.773,225.957,17.773,159.624,17.773z M231.127-77.955
			c-3.984,0-7.908-0.02-11.832,0.005c-5.883,0.038-9.681,3.749-9.689,9.517c-0.021,13.025-0.026,26.05,0,39.075
			c0.021,9.958,8.158,17.933,18.351,17.952c16.829,0.032,33.659,0.032,50.489,0c10.187-0.02,18.322-8,18.343-17.96
			c0.026-12.823,0.01-25.646,0.005-38.469c-0.003-6.644-3.528-10.108-10.283-10.119c-3.797-0.006-7.594-0.001-11.55-0.001
			c0-3.481,0.013-6.5-0.002-9.52c-0.051-10.563-8.519-19.686-19.252-20.751c-11.171-1.109-21.533,5.796-23.621,16.25
			C231.207-87.574,231.433-82.964,231.127-77.955z"/>
		<path fill-rule="evenodd" clip-rule="evenodd" d="M231.127-77.955c0.306-5.009,0.079-9.62,0.958-14.021
			c2.088-10.454,12.45-17.359,23.621-16.25c10.733,1.065,19.201,10.188,19.252,20.751c0.015,3.019,0.002,6.039,0.002,9.52
			c3.956,0,7.753-0.005,11.55,0.001c6.755,0.01,10.28,3.475,10.283,10.119c0.005,12.823,0.021,25.646-0.005,38.469
			c-0.021,9.959-8.156,17.94-18.343,17.96c-16.83,0.032-33.66,0.032-50.489,0c-10.192-0.019-18.33-7.994-18.351-17.952
			c-0.026-13.025-0.021-26.05,0-39.075c0.009-5.768,3.807-9.479,9.689-9.517C223.219-77.975,227.143-77.955,231.127-77.955z
			 M218.817-68.788c0,12.705-0.021,25.125,0.008,37.543c0.017,7.39,3.658,10.873,11.362,10.882
			c15.383,0.02,30.765,0.023,46.146-0.001c7.709-0.012,11.22-3.442,11.236-10.958c0.026-11.616,0.011-23.232-0.001-34.849
			c-0.001-0.872-0.117-1.745-0.181-2.62c-4.223,0-8.214,0-12.428,0c0,3.317,0.016,6.432-0.004,9.547
			c-0.021,3.402-1.622,5.323-4.458,5.4c-2.99,0.082-4.73-1.885-4.751-5.42c-0.019-3.188-0.004-6.377-0.004-9.507
			c-8.614,0-16.763,0-25.093,0c0,3.344,0.017,6.464-0.005,9.584c-0.023,3.397-1.646,5.296-4.518,5.343
			c-2.987,0.049-4.673-1.904-4.691-5.479c-0.018-3.185-0.004-6.37-0.004-9.664c-4.032,0-7.56-0.005-11.087,0.007
			C219.952-68.978,219.557-68.883,218.817-68.788z M265.608-78.067c0-3.656,0.299-7.089-0.066-10.454
			c-0.648-5.97-5.986-10.545-11.982-10.711c-5.931-0.164-11.494,3.862-12.443,9.738c-0.595,3.687-0.11,7.538-0.11,11.427
			C249.129-78.067,257.19-78.067,265.608-78.067z"/>
		<path fill-rule="evenodd" clip-rule="evenodd" fill="#FFFFFF" d="M218.817-68.788c0.74-0.096,1.135-0.19,1.529-0.191
			c3.527-0.012,7.055-0.007,11.087-0.007c0,3.294-0.014,6.479,0.004,9.664c0.019,3.575,1.704,5.528,4.691,5.479
			c2.871-0.047,4.494-1.946,4.518-5.343c0.021-3.12,0.005-6.24,0.005-9.584c8.33,0,16.479,0,25.093,0
			c0,3.129-0.015,6.318,0.004,9.507c0.021,3.535,1.761,5.501,4.751,5.42c2.836-0.078,4.438-1.998,4.458-5.4
			c0.02-3.115,0.004-6.23,0.004-9.547c4.214,0,8.205,0,12.428,0c0.063,0.875,0.18,1.748,0.181,2.62
			c0.012,11.617,0.027,23.233,0.001,34.849c-0.017,7.516-3.527,10.946-11.236,10.958c-15.382,0.025-30.764,0.021-46.146,0.001
			c-7.704-0.01-11.346-3.493-11.362-10.882C218.796-43.663,218.817-56.083,218.817-68.788z"/>
		<path fill-rule="evenodd" clip-rule="evenodd" fill="#FFFFFF" d="M265.608-78.067c-8.418,0-16.479,0-24.603,0
			c0-3.889-0.484-7.74,0.11-11.427c0.949-5.876,6.513-9.902,12.443-9.738c5.996,0.166,11.334,4.742,11.982,10.711
			C265.907-85.156,265.608-81.723,265.608-78.067z"/>
	</g>
</g>
<path fill-rule="evenodd" clip-rule="evenodd" fill="#FFFFFF" d="M187.606,97.705c-0.441,0-0.73,0-1.021,0
	c-13.579,0-27.159-0.004-40.738,0.016c-0.638,0-0.996-0.166-1.337-0.734c-14.521-24.231-29.058-48.45-43.616-72.657
	c-0.429-0.714-0.315-0.972,0.367-1.38c9.914-5.929,19.813-11.885,29.701-17.859c0.59-0.356,0.842-0.335,1.209,0.276
	c18.32,30.527,36.656,61.044,54.99,91.564C187.284,97.135,187.397,97.342,187.606,97.705z"/>
<path fill-rule="evenodd" clip-rule="evenodd" fill="#FFFFFF" d="M138.813,146.428c-2.742,0.014-5.485,0.02-8.228,0.053
	c-0.438,0.004-0.576-0.137-0.542-0.561c0.033-0.412,0.007-0.832,0.007-1.4c-4.58,2.801-9.426,3.723-14.595,2.527
	c-5.186-1.199-9.197-4.113-12.034-8.592c-4.569-7.211-3.68-16.637,2.083-23.014c5.514-6.102,15.444-8.822,24.463-3.387
	c0.163-0.207,0.078-0.449,0.079-0.666c0.006-4.326,0.005-8.652,0.004-12.977c0-0.361,0.125-0.824-0.522-0.721
	c-0.327-0.223-0.696-0.115-1.044-0.115c-13.688-0.01-27.377-0.012-41.066-0.014c-2.909-4.813-5.827-9.62-8.726-14.436
	c-5.169-8.596-10.319-17.201-15.503-25.787c-0.356-0.59-0.345-0.826,0.282-1.201c9.936-5.947,19.859-11.917,29.766-17.916
	c0.688-0.417,0.953-0.374,1.371,0.324c11.637,19.432,23.3,38.849,34.942,58.277c0.343,0.572,0.68,0.82,1.384,0.805
	c2.565-0.051,5.133-0.012,7.699-0.006c0.069,0.037,0.139,0.072,0.208,0.109c0.023,0.234,0.066,0.469,0.066,0.703
	c0.004,15.783,0.004,31.566,0.003,47.35c0,0.148-0.014,0.297-0.021,0.445C138.865,146.297,138.839,146.361,138.813,146.428z
	 M130.05,128.332c0.604-4.963-4.091-10.482-10.29-10.508c-5.812-0.023-10.521,4.66-10.542,10.488
	c-0.021,5.807,4.666,10.541,10.479,10.563C126.018,138.898,130.678,133.207,130.05,128.332z"/>
<path fill-rule="evenodd" clip-rule="evenodd" fill="#FFFFFF" d="M74.25,112.068c0-0.395,0-0.742,0-1.088
	c0-4.18,0.015-8.359-0.015-12.537c-0.005-0.66,0.149-0.865,0.837-0.854c2.417,0.045,4.835,0.035,7.252,0.004
	c0.6-0.008,0.814,0.113,0.813,0.771c-0.02,15.789-0.02,31.58,0.001,47.369c0,0.674-0.234,0.758-0.814,0.75
	c-2.357-0.031-4.717-0.051-7.073,0.008c-0.816,0.02-1.143-0.197-1.008-1.02c0.042-0.256,0.006-0.523,0.006-0.928
	c-5.183,3.104-10.574,3.861-16.226,2.066c-4.14-1.316-7.444-3.834-9.925-7.402c-4.859-6.982-4.421-16.418,0.954-23.041
	C54.042,110.02,64.336,106.162,74.25,112.068z M74.25,128.332c0.643-4.986-4.121-10.518-10.359-10.508
	c-5.8,0.01-10.513,4.729-10.509,10.531c0.004,5.775,4.75,10.52,10.535,10.52C70.181,138.877,74.896,133.285,74.25,128.332z"/>
<path fill-rule="evenodd" clip-rule="evenodd" fill="#FFFFFF" d="M32.43,144.58c-9.729,5.818-20.141,2.352-25.368-4.336
	c-5.587-7.145-5.519-17.01,0.113-23.971c5.516-6.82,15.876-9.807,25.254-4.17c0-0.309,0-0.559,0-0.807
	c0.001-1.195,0.001-1.195,1.24-1.195c2.298,0,4.597,0.018,6.895-0.012c0.565-0.008,0.766,0.115,0.765,0.729
	c-0.018,11.639-0.018,23.279-0.001,34.918c0,0.578-0.139,0.76-0.741,0.75c-2.387-0.037-4.776-0.053-7.163,0.006
	c-0.81,0.018-1.138-0.191-1.001-1.012C32.466,145.223,32.43,144.953,32.43,144.58z M32.43,128.373
	c0.618-5.221-4.304-10.551-10.333-10.551c-5.804,0-10.501,4.711-10.489,10.537c0.013,5.818,4.762,10.557,10.522,10.52
	C28.392,138.842,33.056,133.24,32.43,128.373z"/>
<path fill-rule="evenodd" clip-rule="evenodd" fill="#FFFFFF" d="M171.382,112.037c0.021-0.088,0.052-0.164,0.054-0.242
	c0.063-1.693,0.063-1.693,1.73-1.693c2.148,0,4.298,0.025,6.446-0.014c0.609-0.012,0.736,0.186,0.736,0.756
	c-0.016,11.639-0.017,23.279,0.003,34.918c0.001,0.625-0.214,0.727-0.768,0.721c-2.388-0.027-4.776-0.053-7.162,0.01
	c-0.836,0.023-1.113-0.227-0.989-1.023c0.04-0.256,0.006-0.521,0.006-0.924c-5.188,3.135-10.606,3.863-16.275,2.041
	c-4.133-1.33-7.425-3.867-9.891-7.441c-4.854-7.041-4.339-16.531,1.102-23.1C151.524,109.83,161.79,106.289,171.382,112.037z
	 M171.439,128.334c0.618-5.195-4.319-10.502-10.272-10.512c-5.814-0.012-10.536,4.674-10.541,10.488
	c-0.005,5.828,4.651,10.525,10.477,10.564C167.202,138.916,172.083,133.42,171.439,128.334z"/>
<path fill-rule="evenodd" clip-rule="evenodd" fill="#FFFFFF" d="M189.139,134.391c1.434,0,2.866,0,4.299-0.002
	c0.331,0,0.65-0.055,0.684,0.453c0.183,2.789,1.953,4.086,4.465,4.563c2.122,0.402,4.267,0.498,6.385-0.096
	c0.787-0.221,1.485-0.609,2.074-1.182c1.411-1.371,1.248-3.053-0.421-4.096c-1.57-0.98-3.361-1.334-5.133-1.729
	c-3.021-0.672-6.062-1.283-8.975-2.342c-3.284-1.197-5.909-3.139-6.751-6.775c-1.334-5.754,1.86-11.393,7.574-13.428
	c2.772-0.986,5.649-1.184,8.557-1.033c2.564,0.133,5.102,0.459,7.527,1.383c4.381,1.668,7.022,5.34,7.144,9.867
	c0.019,0.68-0.165,0.85-0.836,0.84c-2.626-0.039-5.254-0.018-7.88-0.014c-0.397,0-0.729,0.047-0.818-0.533
	c-0.411-2.672-2.13-3.93-4.704-4.186c-1.611-0.16-3.218-0.143-4.798,0.277c-0.67,0.18-1.29,0.455-1.789,0.957
	c-1.298,1.307-1.124,3.041,0.441,3.988c1.763,1.066,3.77,1.426,5.74,1.875c2.755,0.629,5.512,1.254,8.197,2.146
	c0.563,0.188,1.121,0.402,1.655,0.658c3.339,1.602,5.647,4.025,5.829,7.906c0.21,4.508-1.397,8.17-5.396,10.555
	c-2.476,1.477-5.194,2.219-8.049,2.436c-4.48,0.342-8.888,0.033-13.049-1.85c-4.182-1.891-6.566-5.088-6.9-9.734
	c-0.047-0.652,0.031-0.965,0.81-0.926C186.391,134.439,187.766,134.391,189.139,134.391z"/>
<path fill-rule="evenodd" clip-rule="evenodd" fill="#FFFFFF" d="M72.482,97.705c-0.319,0-0.581,0-0.843,0
	c-13.605,0-27.21-0.004-40.815,0.016c-0.642,0.002-1.006-0.166-1.336-0.738c-1.294-2.24-2.643-4.451-3.989-6.663
	c-0.266-0.438-0.376-0.682,0.199-1.025c10.091-6.029,20.166-12.086,30.239-18.146c0.354-0.213,0.549-0.304,0.818,0.147
	c5.221,8.736,10.46,17.461,15.695,26.19C72.464,97.508,72.459,97.541,72.482,97.705z"/>
<path fill-rule="evenodd" clip-rule="evenodd" fill="#FFFFFF" d="M97.1,127.822c0,5.906-0.021,11.813,0.023,17.719
	c0.006,0.826-0.241,0.957-0.987,0.943c-2.624-0.045-5.25-0.031-7.875-0.006c-0.573,0.006-0.828-0.07-0.827-0.75
	c0.022-11.961,0.022-23.924,0-35.885c-0.001-0.643,0.233-0.723,0.771-0.719c2.714,0.02,5.43,0.031,8.144-0.008
	c0.652-0.01,0.766,0.213,0.763,0.807C97.091,115.891,97.1,121.855,97.1,127.822z"/>
<path fill-rule="evenodd" clip-rule="evenodd" fill="#FFFFFF" d="M97.057,97.934c0.007,2.74,0.014,5.479,0.02,8.219
	c-0.059,0.049-0.117,0.1-0.177,0.148c-2.92,0.006-5.84,0.016-8.76,0.008c-0.248,0-0.644,0.191-0.677-0.316
	c0.216-0.295,0.116-0.635,0.117-0.953c0.01-2.023,0.039-4.047-0.012-6.07c-0.02-0.783,0.15-1.068,1.009-1.051
	C91.402,97.977,94.231,97.938,97.057,97.934z"/>
<path fill-rule="evenodd" clip-rule="evenodd" fill="#FFFFFF" d="M138.841,97.732c-0.069-0.037-0.139-0.072-0.208-0.109
	C138.756,97.557,138.825,97.596,138.841,97.732z"/>
<path fill-rule="evenodd" clip-rule="evenodd" fill="#FFFFFF" d="M138.813,146.428c0.026-0.066,0.052-0.131,0.077-0.197
	C139.006,146.352,138.978,146.416,138.813,146.428z"/>
</svg>
