<?xml version="1.0" encoding="utf-8"?>
<!-- Generator: Adobe Illustrator 16.0.0, SVG Export Plug-In . SVG Version: 6.00 Build 0)  -->
<!DOCTYPE svg PUBLIC "-//W3C//DTD SVG 1.1//EN" "http://www.w3.org/Graphics/SVG/1.1/DTD/svg11.dtd">
<svg version="1.1" id="Capa_1" xmlns="http://www.w3.org/2000/svg" xmlns:xlink="http://www.w3.org/1999/xlink" x="0px" y="0px"
	 width="1000px" height="1000px" viewBox="0 0 1000 1000" enable-background="new 0 0 1000 1000" xml:space="preserve">
<g id="XMLID_6_">
	<g>
		<path fill="#FFA900" d="M537.436,127.639l0.072,863.553c-3.305,0.085-6.619,0.105-9.965,0.105
			c-239.399,0-433.479-193.358-433.479-431.882s194.079-431.882,433.479-431.882C530.848,127.533,534.142,127.575,537.436,127.639z"
			/>
	</g>
	<g>
		<path fill="none" stroke="#FFA900" stroke-miterlimit="10" d="M537.508,991.191c-3.305,0.085-6.619,0.105-9.965,0.105
			c-239.399,0-433.479-193.358-433.479-431.882s194.079-431.882,433.479-431.882c3.305,0,6.599,0.042,9.893,0.105L537.508,991.191z"
			/>
	</g>
</g>
<path fill="#47C800" stroke="#47C800" stroke-linecap="round" stroke-linejoin="round" d="M537.502,117.963
	c0,0,4.161-108.554-89.943-110.661C447.559,7.302,461.409,91.873,537.502,117.963z"/>
<g>
	<g id="XMLID_4_">
		<g>
			<polygon fill="#FFA900" points="866.791,662.644 866.791,564.173 905.001,564.173 905.001,761.115 868.52,761.115 
				831.731,672.55 831.885,760.946 794.247,761.115 794.247,564.173 824.049,564.173 			"/>
			<polygon fill="#FFA900" points="756.16,346.635 784.764,547.923 750.697,547.923 746.186,500.041 723.709,500.041 
				716.63,547.923 683.197,547.923 713.755,346.635 			"/>
			<polygon fill="#FFA900" points="756.16,776.086 784.764,977.362 750.697,977.362 746.186,929.48 723.709,929.48 716.63,977.362 
				683.197,977.362 713.755,776.086 			"/>
			<polygon fill="#FFA900" points="750.339,761.083 745.93,714.227 723.935,714.227 717.009,761.083 684.303,761.083 
				714.175,564.131 755.689,564.131 783.669,761.083 			"/>
			<polygon fill="#FFA900" points="710.799,127.533 675.515,331.073 640.22,331.073 675.515,127.533 			"/>
			<path fill="#FFA900" d="M674.891,936.859c2.711,40.673-25.494,40.503-25.494,40.503h-54.067c0,0-32.706,0.814-32.706-39.445
				v-21.609l1.975,0.073c34.128,0,37.177-0.053,37.177-0.063l0.297,0.074c-5.739,25.109,13.177,21.324,13.177,21.324
				c11.713-1.363,12.798-21.853,12.798-29.507v-95.881h-65.423v-34.593h112.268V936.859z"/>
			<polygon fill="#FFA900" points="600.557,457.413 600.71,547.859 562.183,548.019 562.183,346.551 592.68,346.551 
				636.425,447.284 636.425,346.551 675.483,346.551 675.483,548.019 638.184,548.019 			"/>
			<path fill="#FFA900" d="M600.25,166.048l-17.862-0.084v-17.878c0,0,20.645,0.317,27.08-17.698h15.365v119.605l-24.542-0.021
				L600.25,166.048z"/>
		</g>
		<g>
			<path fill="none" stroke="#FFA900" stroke-miterlimit="10" d="M609.468,130.388h15.365v119.605l-24.542-0.021l-0.041-83.924
				l-17.862-0.084v-17.878C582.388,148.086,603.032,148.403,609.468,130.388z"/>
			<polygon fill="none" stroke="#FFA900" stroke-miterlimit="10" points="562.183,346.551 592.68,346.551 636.425,447.284 
				636.425,346.551 675.483,346.551 675.483,548.019 638.184,548.019 600.557,457.413 600.71,547.859 562.183,548.019 			"/>
			<polygon fill="none" stroke="#FFA900" stroke-miterlimit="10" points="713.755,346.635 756.16,346.635 784.764,547.923 
				750.697,547.923 746.186,500.041 723.709,500.041 716.63,547.923 683.197,547.923 			"/>
			<polygon fill="none" stroke="#FFA900" stroke-miterlimit="10" points="714.175,564.131 755.689,564.131 783.669,761.083 
				750.339,761.083 745.93,714.227 723.935,714.227 717.009,761.083 684.303,761.083 			"/>
			<polygon fill="none" stroke="#FFA900" stroke-miterlimit="10" points="713.755,776.086 756.16,776.086 784.764,977.362 
				750.697,977.362 746.186,929.48 723.709,929.48 716.63,977.362 683.197,977.362 			"/>
			<polygon fill="none" stroke="#FFA900" stroke-miterlimit="10" points="794.247,564.173 824.049,564.173 866.791,662.644 
				866.791,564.173 905.001,564.173 905.001,761.115 868.52,761.115 831.731,672.55 831.885,760.946 794.247,761.115 			"/>
			<path fill="none" stroke="#FFA900" stroke-miterlimit="10" d="M602.225,915.736c-0.052,0.222-0.103,0.444-0.153,0.655
				c-5.739,25.109,13.177,21.324,13.177,21.324c11.713-1.363,12.798-21.853,12.798-29.507v-95.881h-65.423v-34.593h112.268v159.124
				c2.711,40.673-25.494,40.503-25.494,40.503h-54.067c0,0-32.706,0.814-32.706-39.445v-21.609l1.975,0.073
				c34.128,0,37.177-0.053,37.177-0.063c0-0.01-0.144-0.01-0.144-0.01"/>
			<polygon fill="none" stroke="#FFA900" stroke-miterlimit="10" points="640.22,331.073 675.515,331.073 710.799,127.533 
				675.515,127.533 			"/>
		</g>
	</g>
	<path fill="#FFA900" stroke="#FFA900" stroke-linecap="round" stroke-linejoin="round" d="M563.316,761.155h39.049v-46.474h25.764
		v46.474h45.898v-72.437c0,0,0.868-18.986-19.21-26.546l-8.448,0.538h2.521c22.943,0,25.461-22.089,25.461-22.089s0,0,0.027-38.909
		c0.021-15.067-9.778-29.638-22.98-35.491c-29.235-3.889-58.46-0.968-88.082-1.937V761.155h39.049H563.316z"/>
</g>
<path fill="#FFA900" stroke="#FFA900" stroke-linecap="round" stroke-linejoin="round" d="M770.291,267.064h17.729l0,0v22.033
	h-70.925c-4.452-38.056,34.094-52.069,34.094-52.069c22.851-11.664,10.936-27.288-0.342-27.045
	c-16.036,0.356-33.075,15.154-33.428,14.797l-0.324-25.023c0,0,10.199-12.52,35.438-12.419h-1.344
	c12.268,0,34.153,3.403,36.831,30.037c3.058,30.576-32.57,44.591-32.57,44.591v5.099h32.57"/>
</svg>
